<mxfile host="app.diagrams.net" modified="2022-09-26T06:20:40.345Z" agent="5.0 (Windows NT 10.0; Win64; x64) AppleWebKit/537.36 (KHTML, like Gecko) Chrome/105.0.0.0 Safari/537.36" etag="CbiQCZyiK-oVb2SETNcw" version="20.3.6" type="github" pages="2">
  <diagram id="Nt-qGN5W3i-qoPwv_6xT" name="第 1 页">
    <mxGraphModel dx="1635" dy="866" grid="1" gridSize="10" guides="1" tooltips="1" connect="1" arrows="1" fold="1" page="1" pageScale="1" pageWidth="827" pageHeight="1169" math="0" shadow="0">
      <root>
        <mxCell id="0" />
        <mxCell id="1" parent="0" />
        <mxCell id="hO9k1SS9SRoio_GHONLS-42" value="创建计划（人群圈选规则---定时）" style="swimlane;childLayout=stackLayout;resizeParent=1;resizeParentMax=0;startSize=20;" parent="1" vertex="1">
          <mxGeometry x="200" y="120" width="1090" height="900" as="geometry" />
        </mxCell>
        <mxCell id="hO9k1SS9SRoio_GHONLS-58" style="edgeStyle=orthogonalEdgeStyle;rounded=0;orthogonalLoop=1;jettySize=auto;html=1;entryX=0;entryY=0.5;entryDx=0;entryDy=0;" parent="hO9k1SS9SRoio_GHONLS-42" source="hO9k1SS9SRoio_GHONLS-57" target="hO9k1SS9SRoio_GHONLS-48" edge="1">
          <mxGeometry relative="1" as="geometry" />
        </mxCell>
        <mxCell id="hO9k1SS9SRoio_GHONLS-59" style="edgeStyle=orthogonalEdgeStyle;rounded=0;orthogonalLoop=1;jettySize=auto;html=1;entryX=1;entryY=0.5;entryDx=0;entryDy=0;exitX=0.55;exitY=0.95;exitDx=0;exitDy=0;exitPerimeter=0;" parent="hO9k1SS9SRoio_GHONLS-42" source="hO9k1SS9SRoio_GHONLS-50" target="hO9k1SS9SRoio_GHONLS-60" edge="1">
          <mxGeometry relative="1" as="geometry">
            <mxPoint x="700" y="490" as="targetPoint" />
            <Array as="points">
              <mxPoint x="871" y="280" />
            </Array>
          </mxGeometry>
        </mxCell>
        <mxCell id="hO9k1SS9SRoio_GHONLS-43" value="backend" style="swimlane;startSize=20;" parent="hO9k1SS9SRoio_GHONLS-42" vertex="1">
          <mxGeometry y="20" width="640" height="880" as="geometry" />
        </mxCell>
        <mxCell id="hO9k1SS9SRoio_GHONLS-52" style="edgeStyle=orthogonalEdgeStyle;rounded=0;orthogonalLoop=1;jettySize=auto;html=1;" parent="hO9k1SS9SRoio_GHONLS-43" source="hO9k1SS9SRoio_GHONLS-47" target="hO9k1SS9SRoio_GHONLS-51" edge="1">
          <mxGeometry relative="1" as="geometry" />
        </mxCell>
        <mxCell id="hO9k1SS9SRoio_GHONLS-47" value="创建计划" style="rounded=1;whiteSpace=wrap;html=1;" parent="hO9k1SS9SRoio_GHONLS-43" vertex="1">
          <mxGeometry x="65" y="40" width="100" height="40" as="geometry" />
        </mxCell>
        <mxCell id="hO9k1SS9SRoio_GHONLS-51" value="人群圈选" style="rounded=0;whiteSpace=wrap;html=1;" parent="hO9k1SS9SRoio_GHONLS-43" vertex="1">
          <mxGeometry x="60" y="150" width="110" height="60" as="geometry" />
        </mxCell>
        <mxCell id="hO9k1SS9SRoio_GHONLS-57" value="人群圈选接口" style="rounded=0;whiteSpace=wrap;html=1;" parent="hO9k1SS9SRoio_GHONLS-43" vertex="1">
          <mxGeometry x="452" y="80" width="110" height="60" as="geometry" />
        </mxCell>
        <mxCell id="hO9k1SS9SRoio_GHONLS-60" value="生成人群包" style="rounded=0;whiteSpace=wrap;html=1;" parent="hO9k1SS9SRoio_GHONLS-43" vertex="1">
          <mxGeometry x="452" y="230" width="110" height="60" as="geometry" />
        </mxCell>
        <mxCell id="hO9k1SS9SRoio_GHONLS-67" value="生成计划数据" style="rounded=0;whiteSpace=wrap;html=1;" parent="hO9k1SS9SRoio_GHONLS-43" vertex="1">
          <mxGeometry x="55" y="280" width="110" height="60" as="geometry" />
        </mxCell>
        <mxCell id="hO9k1SS9SRoio_GHONLS-91" style="edgeStyle=orthogonalEdgeStyle;rounded=0;orthogonalLoop=1;jettySize=auto;html=1;entryX=0;entryY=0.5;entryDx=0;entryDy=0;exitX=0.5;exitY=0;exitDx=0;exitDy=0;" parent="hO9k1SS9SRoio_GHONLS-43" source="hO9k1SS9SRoio_GHONLS-90" target="hO9k1SS9SRoio_GHONLS-57" edge="1">
          <mxGeometry relative="1" as="geometry" />
        </mxCell>
        <mxCell id="hO9k1SS9SRoio_GHONLS-90" value="规则id，planId" style="rounded=0;whiteSpace=wrap;html=1;" parent="hO9k1SS9SRoio_GHONLS-43" vertex="1">
          <mxGeometry x="265" y="365" width="110" height="60" as="geometry" />
        </mxCell>
        <mxCell id="hO9k1SS9SRoio_GHONLS-89" style="edgeStyle=orthogonalEdgeStyle;rounded=0;orthogonalLoop=1;jettySize=auto;html=1;entryX=0.5;entryY=1;entryDx=0;entryDy=0;exitX=1;exitY=0.5;exitDx=0;exitDy=0;exitPerimeter=0;" parent="hO9k1SS9SRoio_GHONLS-43" source="-V5R5rY_J3IfyCskAqr6-1" target="hO9k1SS9SRoio_GHONLS-90" edge="1">
          <mxGeometry relative="1" as="geometry">
            <mxPoint x="230" y="540" as="targetPoint" />
            <mxPoint x="160" y="490" as="sourcePoint" />
          </mxGeometry>
        </mxCell>
        <mxCell id="hO9k1SS9SRoio_GHONLS-87" style="edgeStyle=orthogonalEdgeStyle;rounded=0;orthogonalLoop=1;jettySize=auto;html=1;entryX=0.5;entryY=0;entryDx=0;entryDy=0;" parent="hO9k1SS9SRoio_GHONLS-43" source="hO9k1SS9SRoio_GHONLS-67" edge="1">
          <mxGeometry relative="1" as="geometry">
            <mxPoint x="110" y="470" as="targetPoint" />
          </mxGeometry>
        </mxCell>
        <mxCell id="hO9k1SS9SRoio_GHONLS-53" style="edgeStyle=orthogonalEdgeStyle;rounded=0;orthogonalLoop=1;jettySize=auto;html=1;" parent="hO9k1SS9SRoio_GHONLS-43" source="hO9k1SS9SRoio_GHONLS-51" edge="1">
          <mxGeometry relative="1" as="geometry">
            <mxPoint x="115" y="280" as="targetPoint" />
          </mxGeometry>
        </mxCell>
        <mxCell id="-V5R5rY_J3IfyCskAqr6-1" value="&lt;span style=&quot;font-size: 12px;&quot;&gt;insert&lt;br&gt;t_plan_basic&lt;/span&gt;" style="strokeWidth=2;html=1;shape=mxgraph.flowchart.direct_data;whiteSpace=wrap;" parent="hO9k1SS9SRoio_GHONLS-43" vertex="1">
          <mxGeometry x="65" y="470" width="105" height="60" as="geometry" />
        </mxCell>
        <mxCell id="-V5R5rY_J3IfyCskAqr6-2" value="update&amp;nbsp;&lt;br&gt;t_plan_basic" style="strokeWidth=2;html=1;shape=mxgraph.flowchart.direct_data;whiteSpace=wrap;" parent="hO9k1SS9SRoio_GHONLS-43" vertex="1">
          <mxGeometry x="459.5" y="480" width="105" height="60" as="geometry" />
        </mxCell>
        <mxCell id="NRSUEeEKJB2Scc3rB_ty-1" value="调用third服务" style="rounded=0;whiteSpace=wrap;html=1;" parent="hO9k1SS9SRoio_GHONLS-43" vertex="1">
          <mxGeometry x="470" y="727.01" width="120" height="60" as="geometry" />
        </mxCell>
        <mxCell id="NRSUEeEKJB2Scc3rB_ty-3" style="edgeStyle=orthogonalEdgeStyle;rounded=0;orthogonalLoop=1;jettySize=auto;html=1;entryX=0.5;entryY=0;entryDx=0;entryDy=0;entryPerimeter=0;" parent="hO9k1SS9SRoio_GHONLS-43" source="NRSUEeEKJB2Scc3rB_ty-2" target="-V5R5rY_J3IfyCskAqr6-2" edge="1">
          <mxGeometry relative="1" as="geometry" />
        </mxCell>
        <mxCell id="NRSUEeEKJB2Scc3rB_ty-2" value="更新人群包id" style="rounded=0;whiteSpace=wrap;html=1;" parent="hO9k1SS9SRoio_GHONLS-43" vertex="1">
          <mxGeometry x="452" y="365" width="120" height="60" as="geometry" />
        </mxCell>
        <mxCell id="hO9k1SS9SRoio_GHONLS-93" style="edgeStyle=orthogonalEdgeStyle;rounded=0;orthogonalLoop=1;jettySize=auto;html=1;" parent="hO9k1SS9SRoio_GHONLS-43" source="hO9k1SS9SRoio_GHONLS-60" edge="1">
          <mxGeometry relative="1" as="geometry">
            <mxPoint x="507" y="370" as="targetPoint" />
          </mxGeometry>
        </mxCell>
        <mxCell id="d5DeZZ7ShsgQkrCPbnTe-2" value="" style="sketch=0;aspect=fixed;html=1;points=[];align=center;image;fontSize=12;image=img/lib/mscae/Cache_Redis_Product.svg;" parent="hO9k1SS9SRoio_GHONLS-43" vertex="1">
          <mxGeometry x="84.64" y="590" width="60.71" height="51" as="geometry" />
        </mxCell>
        <mxCell id="d5DeZZ7ShsgQkrCPbnTe-3" value="执行时间key" style="text;html=1;strokeColor=none;fillColor=none;align=center;verticalAlign=middle;whiteSpace=wrap;rounded=0;" parent="hO9k1SS9SRoio_GHONLS-43" vertex="1">
          <mxGeometry x="140" y="580" width="60" height="30" as="geometry" />
        </mxCell>
        <mxCell id="d5DeZZ7ShsgQkrCPbnTe-5" style="edgeStyle=orthogonalEdgeStyle;rounded=0;orthogonalLoop=1;jettySize=auto;html=1;" parent="hO9k1SS9SRoio_GHONLS-43" source="d5DeZZ7ShsgQkrCPbnTe-4" target="d5DeZZ7ShsgQkrCPbnTe-2" edge="1">
          <mxGeometry relative="1" as="geometry">
            <mxPoint x="110" y="650" as="targetPoint" />
          </mxGeometry>
        </mxCell>
        <mxCell id="d5DeZZ7ShsgQkrCPbnTe-4" value="" style="aspect=fixed;perimeter=ellipsePerimeter;html=1;align=center;shadow=0;dashed=0;fontColor=#4277BB;labelBackgroundColor=#ffffff;fontSize=12;spacingTop=3;image;image=img/lib/ibm/blockchain/event_listener.svg;" parent="hO9k1SS9SRoio_GHONLS-43" vertex="1">
          <mxGeometry x="80" y="727.01" width="60" height="60" as="geometry" />
        </mxCell>
        <mxCell id="d5DeZZ7ShsgQkrCPbnTe-8" style="edgeStyle=orthogonalEdgeStyle;rounded=0;orthogonalLoop=1;jettySize=auto;html=1;entryX=0;entryY=0.5;entryDx=0;entryDy=0;" parent="hO9k1SS9SRoio_GHONLS-43" source="d5DeZZ7ShsgQkrCPbnTe-7" target="NRSUEeEKJB2Scc3rB_ty-1" edge="1">
          <mxGeometry relative="1" as="geometry" />
        </mxCell>
        <mxCell id="d5DeZZ7ShsgQkrCPbnTe-7" value="&lt;span style=&quot;font-size: 12px;&quot;&gt;insert&lt;br&gt;t_plan_send&lt;br&gt;_recod&lt;/span&gt;" style="strokeWidth=2;html=1;shape=mxgraph.flowchart.direct_data;whiteSpace=wrap;" parent="hO9k1SS9SRoio_GHONLS-43" vertex="1">
          <mxGeometry x="224" y="727.01" width="105" height="60" as="geometry" />
        </mxCell>
        <mxCell id="hO9k1SS9SRoio_GHONLS-44" value="bigdata" style="swimlane;startSize=20;" parent="hO9k1SS9SRoio_GHONLS-42" vertex="1">
          <mxGeometry x="640" y="20" width="450" height="880" as="geometry" />
        </mxCell>
        <mxCell id="hO9k1SS9SRoio_GHONLS-48" value="人群圈选接口" style="rounded=0;whiteSpace=wrap;html=1;" parent="hO9k1SS9SRoio_GHONLS-44" vertex="1">
          <mxGeometry x="165" y="80" width="120" height="60" as="geometry" />
        </mxCell>
        <mxCell id="hO9k1SS9SRoio_GHONLS-50" value="七牛云" style="ellipse;shape=cloud;whiteSpace=wrap;html=1;" parent="hO9k1SS9SRoio_GHONLS-44" vertex="1">
          <mxGeometry x="165" y="170" width="120" height="80" as="geometry" />
        </mxCell>
        <mxCell id="hO9k1SS9SRoio_GHONLS-49" style="edgeStyle=orthogonalEdgeStyle;rounded=0;orthogonalLoop=1;jettySize=auto;html=1;entryX=0.504;entryY=0.107;entryDx=0;entryDy=0;entryPerimeter=0;" parent="hO9k1SS9SRoio_GHONLS-44" source="hO9k1SS9SRoio_GHONLS-48" target="hO9k1SS9SRoio_GHONLS-50" edge="1">
          <mxGeometry relative="1" as="geometry">
            <mxPoint x="65" y="220" as="targetPoint" />
          </mxGeometry>
        </mxCell>
        <mxCell id="d5DeZZ7ShsgQkrCPbnTe-1" style="edgeStyle=orthogonalEdgeStyle;rounded=0;orthogonalLoop=1;jettySize=auto;html=1;" parent="1" source="-V5R5rY_J3IfyCskAqr6-1" edge="1">
          <mxGeometry relative="1" as="geometry">
            <mxPoint x="307.5" y="730" as="targetPoint" />
          </mxGeometry>
        </mxCell>
        <mxCell id="d5DeZZ7ShsgQkrCPbnTe-6" style="edgeStyle=orthogonalEdgeStyle;rounded=0;orthogonalLoop=1;jettySize=auto;html=1;" parent="1" source="d5DeZZ7ShsgQkrCPbnTe-4" edge="1">
          <mxGeometry relative="1" as="geometry">
            <mxPoint x="420" y="897.01" as="targetPoint" />
          </mxGeometry>
        </mxCell>
      </root>
    </mxGraphModel>
  </diagram>
  <diagram id="dqntnyOF08AJuUJGwk2q" name="第 2 页">
    <mxGraphModel dx="1635" dy="866" grid="1" gridSize="10" guides="1" tooltips="1" connect="1" arrows="1" fold="1" page="1" pageScale="1" pageWidth="827" pageHeight="1169" math="0" shadow="0">
      <root>
        <mxCell id="0" />
        <mxCell id="1" parent="0" />
        <mxCell id="efMZtO4fmWVZmc5DneWf-1" value="创建计划（人群包导入--立即）" style="swimlane;childLayout=stackLayout;resizeParent=1;resizeParentMax=0;startSize=20;" parent="1" vertex="1">
          <mxGeometry x="170" y="140" width="1050" height="620" as="geometry" />
        </mxCell>
        <mxCell id="efMZtO4fmWVZmc5DneWf-2" value="service-user-push" style="swimlane;startSize=20;" parent="efMZtO4fmWVZmc5DneWf-1" vertex="1">
          <mxGeometry y="20" width="590" height="600" as="geometry" />
        </mxCell>
        <mxCell id="efMZtO4fmWVZmc5DneWf-3" style="edgeStyle=orthogonalEdgeStyle;rounded=0;orthogonalLoop=1;jettySize=auto;html=1;" parent="efMZtO4fmWVZmc5DneWf-2" source="efMZtO4fmWVZmc5DneWf-4" target="efMZtO4fmWVZmc5DneWf-5" edge="1">
          <mxGeometry relative="1" as="geometry" />
        </mxCell>
        <mxCell id="efMZtO4fmWVZmc5DneWf-4" value="创建计划" style="rounded=1;whiteSpace=wrap;html=1;" parent="efMZtO4fmWVZmc5DneWf-2" vertex="1">
          <mxGeometry x="65" y="40" width="100" height="40" as="geometry" />
        </mxCell>
        <mxCell id="efMZtO4fmWVZmc5DneWf-5" value="选择人群包" style="rounded=0;whiteSpace=wrap;html=1;" parent="efMZtO4fmWVZmc5DneWf-2" vertex="1">
          <mxGeometry x="60" y="150" width="110" height="60" as="geometry" />
        </mxCell>
        <mxCell id="p8a-xhpbjoNgJIiRh_ZG-7" style="edgeStyle=orthogonalEdgeStyle;rounded=0;orthogonalLoop=1;jettySize=auto;html=1;entryX=0;entryY=0.5;entryDx=0;entryDy=0;exitX=1;exitY=0.5;exitDx=0;exitDy=0;exitPerimeter=0;" edge="1" parent="efMZtO4fmWVZmc5DneWf-2" source="pIOUKri0Egbt3ClzBX4v-1" target="p8a-xhpbjoNgJIiRh_ZG-5">
          <mxGeometry relative="1" as="geometry" />
        </mxCell>
        <mxCell id="efMZtO4fmWVZmc5DneWf-10" value="生成计划数据" style="rounded=0;whiteSpace=wrap;html=1;" parent="efMZtO4fmWVZmc5DneWf-2" vertex="1">
          <mxGeometry x="60" y="270" width="110" height="60" as="geometry" />
        </mxCell>
        <mxCell id="pIOUKri0Egbt3ClzBX4v-1" value="&lt;span style=&quot;font-size: 12px;&quot;&gt;insert&lt;br&gt;t_plan_basic&lt;/span&gt;" style="strokeWidth=2;html=1;shape=mxgraph.flowchart.direct_data;whiteSpace=wrap;" parent="efMZtO4fmWVZmc5DneWf-2" vertex="1">
          <mxGeometry x="62.5" y="420" width="105" height="60" as="geometry" />
        </mxCell>
        <mxCell id="pIOUKri0Egbt3ClzBX4v-2" style="edgeStyle=orthogonalEdgeStyle;rounded=0;orthogonalLoop=1;jettySize=auto;html=1;" parent="efMZtO4fmWVZmc5DneWf-2" source="efMZtO4fmWVZmc5DneWf-10" target="pIOUKri0Egbt3ClzBX4v-1" edge="1">
          <mxGeometry relative="1" as="geometry">
            <mxPoint x="125" y="460" as="targetPoint" />
          </mxGeometry>
        </mxCell>
        <mxCell id="p8a-xhpbjoNgJIiRh_ZG-3" value="insert&lt;br&gt;t_plan_send&lt;br&gt;_record" style="strokeWidth=2;html=1;shape=mxgraph.flowchart.direct_data;whiteSpace=wrap;" vertex="1" parent="efMZtO4fmWVZmc5DneWf-2">
          <mxGeometry x="420" y="420" width="105" height="60" as="geometry" />
        </mxCell>
        <mxCell id="p8a-xhpbjoNgJIiRh_ZG-8" style="edgeStyle=orthogonalEdgeStyle;rounded=0;orthogonalLoop=1;jettySize=auto;html=1;" edge="1" parent="efMZtO4fmWVZmc5DneWf-2" source="p8a-xhpbjoNgJIiRh_ZG-5" target="p8a-xhpbjoNgJIiRh_ZG-3">
          <mxGeometry relative="1" as="geometry" />
        </mxCell>
        <mxCell id="p8a-xhpbjoNgJIiRh_ZG-5" value="生成推送记录" style="rounded=0;whiteSpace=wrap;html=1;" vertex="1" parent="efMZtO4fmWVZmc5DneWf-2">
          <mxGeometry x="244" y="420" width="110" height="60" as="geometry" />
        </mxCell>
        <mxCell id="p8a-xhpbjoNgJIiRh_ZG-9" style="edgeStyle=orthogonalEdgeStyle;rounded=0;orthogonalLoop=1;jettySize=auto;html=1;entryX=0;entryY=0.5;entryDx=0;entryDy=0;" edge="1" parent="efMZtO4fmWVZmc5DneWf-1" source="p8a-xhpbjoNgJIiRh_ZG-3" target="p8a-xhpbjoNgJIiRh_ZG-1">
          <mxGeometry relative="1" as="geometry" />
        </mxCell>
        <mxCell id="DK96OER8s7Xf4gwK9NNj-1" value="七牛" style="swimlane;startSize=20;" parent="efMZtO4fmWVZmc5DneWf-1" vertex="1">
          <mxGeometry x="590" y="20" width="460" height="600" as="geometry" />
        </mxCell>
        <mxCell id="DK96OER8s7Xf4gwK9NNj-2" style="edgeStyle=orthogonalEdgeStyle;rounded=0;orthogonalLoop=1;jettySize=auto;html=1;" parent="DK96OER8s7Xf4gwK9NNj-1" edge="1">
          <mxGeometry relative="1" as="geometry">
            <mxPoint x="115" y="150" as="targetPoint" />
          </mxGeometry>
        </mxCell>
        <mxCell id="p8a-xhpbjoNgJIiRh_ZG-1" value="调用third服务" style="rounded=0;whiteSpace=wrap;html=1;" vertex="1" parent="DK96OER8s7Xf4gwK9NNj-1">
          <mxGeometry x="170" y="320" width="120" height="60" as="geometry" />
        </mxCell>
        <mxCell id="efMZtO4fmWVZmc5DneWf-23" style="edgeStyle=orthogonalEdgeStyle;rounded=0;orthogonalLoop=1;jettySize=auto;html=1;" parent="1" source="efMZtO4fmWVZmc5DneWf-5" edge="1">
          <mxGeometry relative="1" as="geometry">
            <mxPoint x="285" y="430" as="targetPoint" />
            <Array as="points">
              <mxPoint x="285" y="430" />
            </Array>
          </mxGeometry>
        </mxCell>
      </root>
    </mxGraphModel>
  </diagram>
</mxfile>
